<svg version="1.0" xmlns="http://www.w3.org/2000/svg"
 width="500.000000pt" height="500.000000pt" viewBox="0 0 500.000000 500.000000"
 preserveAspectRatio="xMidYMid meet">

<g transform="translate(0.000000,500.000000) scale(0.100000,-0.100000)"
fill="#245FC5" stroke="none">
<path d="M2175 4360 c-170 -170 -314 -310 -320 -310 -5 0 -44 34 -85 75 l-76
76 -557 -558 c-307 -307 -573 -580 -593 -608 -99 -140 -153 -303 -161 -485 -9
-201 26 -353 118 -517 39 -70 101 -136 618 -656 l575 -577 83 82 83 83 117
-115 c64 -63 207 -206 318 -316 l203 -202 126 122 c69 66 213 209 321 316
l195 194 83 -82 82 -82 562 563 c579 580 615 620 677 760 46 106 67 196 73
324 11 222 -39 405 -156 578 -36 53 -1145 1175 -1162 1175 -3 0 -39 -34 -80
-75 -41 -42 -80 -74 -86 -73 -7 2 -152 141 -321 311 -170 169 -313 307 -318
307 -5 0 -148 -140 -319 -310z m524 -950 c154 -16 282 -63 416 -153 65 -43
235 -211 235 -231 0 -7 -65 -61 -145 -120 l-146 -107 -69 74 c-72 77 -139 120
-240 152 -78 26 -235 24 -312 -2 -225 -78 -378 -290 -378 -525 0 -149 45 -252
160 -369 87 -88 164 -131 280 -155 184 -39 362 22 504 171 l59 62 141 -104
c77 -57 142 -110 144 -118 5 -21 -152 -180 -228 -230 -392 -260 -878 -205
-1194 136 -249 269 -307 690 -141 1019 76 149 207 293 344 374 101 61 255 113
364 125 45 4 87 9 93 10 7 0 57 -4 113 -9z"/>
</g>
</svg>
